<svg width="1150" height="542" fill="none" xmlns="http://www.w3.org/2000/svg"><rect width="42.645" height="644.461" rx="21.323" transform="matrix(.7243 .68948 -.87568 .4829 565.105 0)" fill="#FFD624"/><rect width="43.193" height="637.372" rx="21.596" transform="matrix(-.75128 -.65999 .85842 -.51295 602.552 542)" fill="#FFD624"/><rect width="43.193" height="921.369" rx="21.596" transform="matrix(-.75128 -.65999 .85842 -.51295 355.45 528.131)" fill="#FFD624"/><rect width="42.645" height="931.087" rx="21.323" transform="matrix(.7243 .68948 -.87568 .4829 826.334 11.092)" fill="#FFD624"/><rect width="6.725" height="713.316" rx="3.362" transform="matrix(.7243 .68948 -.87568 .4829 633.4 26.41)" fill="#FFD624"/><rect width="6.811" height="705.47" rx="3.406" transform="matrix(-.75128 -.65999 .85842 -.51295 532.885 517.542)" fill="#FFD624"/><rect width="6.725" height="997.327" rx="3.362" transform="matrix(.7243 .68948 -.87568 .4829 1001.34 19.6)" fill="#FFD624"/><rect width="25.322" height="457.051" rx="12.661" transform="matrix(.7243 .68948 -.87568 .4829 404.994 18.046)" fill="#FFD624"/><rect width="25.647" height="452.024" rx="12.823" transform="matrix(-.75128 -.65999 .85842 -.51295 761.568 519.437)" fill="#FFD624"/><rect width="25.322" height="839.525" rx="12.661" transform="matrix(.7243 .68948 -.87568 .4829 741.155 6.83)" fill="#FFD624"/><rect width="25.647" height="830.291" rx="12.823" transform="matrix(-.75128 -.65999 .85842 -.51295 426.268 540.157)" fill="#FFD624"/><rect width="25.545" height="947.463" rx="12.773" transform="matrix(-.74307 -.66921 .86395 -.50357 246.086 510.566)" fill="#FFD624"/><rect width="25.322" height="1013.48" rx="12.661" transform="matrix(.7243 .68948 -.87568 .4829 944.484 14.059)" fill="#FFD624"/></svg>