<svg width="167" height="57" fill="none" xmlns="http://www.w3.org/2000/svg"><path d="M89.2 17.391c0-5.42-4-8.94-9.86-8.94h-8.1v17.88h8.1c5.85 0 9.86-3.53 9.86-8.94zm-13.84 5.57v-11.11h3.78c3.56 0 5.86 2.11 5.86 5.54s-2.3 5.57-5.86 5.57h-3.78zM101 8.151c-5.64 0-9.77 3.92-9.77 9.24s4.13 9.24 9.77 9.24 9.79-3.9 9.79-9.24-4.2-9.24-9.79-9.24zm0 15a5.442 5.442 0 01-5.58-5.71 5.6 5.6 0 1111.19 0 5.463 5.463 0 01-3.427 5.271 5.458 5.458 0 01-2.183.39v.05zm29.3 3.23V8.451h-4.08v10.86l-8.9-10.86h-3.41v17.88H118v-10.86l8.91 10.86 3.39.05zm17.59 0h4.34l-5.79-12.95-2.2-4.93h-4.08l-7.74 17.36-.23.52h4.24l1.57-3.88h8.3l1.59 3.88zm-8.55-7l2.84-6.83 1.54 3.72 1.28 3.08-5.66.03zm11.86-7.52h5.72v14.5H161v-14.53h5.71v-3.38h-15.54l.03 3.41zM79 33.881h-7.76v17.88h4.12v-4.93H79a8.36 8.36 0 005.94-2 5.89 5.89 0 001.82-4.47c-.04-4-3.02-6.48-7.76-6.48zm-.23 9.58h-3.41v-6.2h3.37c2.53 0 3.81 1.14 3.81 3.11s-1.28 3.09-3.81 3.09h.04zm19.85-9.88c-5.64 0-9.78 3.92-9.78 9.24 0 .421.028.842.08 1.26.61 4.67 4.52 8 9.7 8 5.62 0 9.77-3.9 9.77-9.24a9.074 9.074 0 00-.89-4 9.472 9.472 0 00-8.92-5.26h.04zm0 15a5.411 5.411 0 01-5.62-5.41 2.066 2.066 0 010-.35 5.459 5.459 0 015.6-5.72 5.368 5.368 0 015 3.08c.388.825.583 1.728.57 2.64a5.444 5.444 0 01-1.549 4.075 5.458 5.458 0 01-4.041 1.635l.04.05zm12.9 3.23h4.14v-17.93h-4.14v17.93zm20.68-7l-8.88-10.86h-3.42v17.81h4.08v-10.86l8.91 10.86h3.39v-17.88h-4.08v10.93zm6.3-7.48h5.73v14.43h4.13v-14.5h5.73v-3.38h-15.63l.04 3.45z" fill="#fff"/><path d="M47.26 38.181c-.23.48-.47 1-.75 1.44a23.15 23.15 0 01-38 3.34l2.85-1.9-5-1.16-2-.45-1.78-.49v.43l-.36 3.27-.55 4.86 2.68-1.78a28.211 28.211 0 0047.85-6.15c.2-.47.39-1 .57-1.44l-5.51.03zM6.1 16.961a23.14 23.14 0 0138.07-3.55l-1.17.82-1.64 1.1 5 1.14 3.78.88.16-1.39.25-2.25.53-4.86-2.66 1.79a28.2 28.2 0 00-47.93 6.32 3.474 3.474 0 00-.17.45c-.12.25-.22.53-.32.8h5.46c.2-.46.41-.88.64-1.25zm22.21 16.53a14.53 14.53 0 003.19-.33c4.47-.94 7.12-4 7.12-8.39 0-4.39-2.76-7.58-7.41-8.45a14.063 14.063 0 00-2.9-.28h-9.69v13.34h-2.13v4.1h2.13v2.39h-2.13v2.18h2.13v3.91h4.53v-3.91h2.09v-2.18h-2.09v-2.38h5.16zm-5.16-13.35h5.06a10.47 10.47 0 012.06.19c3.11.61 3.82 2.68 3.82 4.44 0 2.1-1 4.61-5.88 4.61h-5.06v-9.24z" fill="#FFC200"/></svg>