<svg width="58" height="60" viewBox="0 0 58 60" fill="none" xmlns="http://www.w3.org/2000/svg">
<path d="M16.9922 16.4062C18.6102 16.4062 19.9219 15.0946 19.9219 13.4766C19.9219 11.8585 18.6102 10.5469 16.9922 10.5469C15.3742 10.5469 14.0625 11.8585 14.0625 13.4766C14.0625 15.0946 15.3742 16.4062 16.9922 16.4062Z" fill="#FFD624"/>
<path d="M16.9922 19.9219C13.6356 19.9219 10.8701 22.5007 10.5732 25.7812H23.4111C23.1143 22.5007 20.3488 19.9219 16.9922 19.9219Z" fill="#FFD624"/>
<path d="M8.78906 38.9062H22.826L24.2012 36.8964C24.3875 36.6246 24.5972 36.3723 24.8264 36.1434L45.7031 15.2668V1.75781C45.7031 0.787031 44.9161 0 43.9453 0H1.75781C0.787031 0 0 0.787031 0 1.75781V58.2422C0 59.213 0.787031 60 1.75781 60H43.9453C44.9161 60 45.7031 59.213 45.7031 58.2422V35.1539L34.7681 46.0889C34.5405 46.3168 34.2877 46.5268 34.0186 46.7113L26.145 52.0985C25.2634 52.7014 24.2341 53.0197 23.1677 53.0197C21.7584 53.0197 20.4339 52.4709 19.4379 51.4747C18.8531 50.89 18.4324 50.1956 18.1789 49.4531H8.78906C7.81828 49.4531 7.03125 48.6661 7.03125 47.6953C7.03125 46.7245 7.81828 45.9375 8.78906 45.9375H18.2143C18.3626 45.5316 18.5617 45.1384 18.815 44.7682L20.4205 42.4219H8.78906C7.81828 42.4219 7.03125 41.6348 7.03125 40.6641C7.03125 39.6933 7.81828 38.9062 8.78906 38.9062ZM29.8828 9.96094H36.9141C37.8848 9.96094 38.6719 10.748 38.6719 11.7188C38.6719 12.6895 37.8848 13.4766 36.9141 13.4766H29.8828C28.912 13.4766 28.125 12.6895 28.125 11.7188C28.125 10.748 28.912 9.96094 29.8828 9.96094ZM29.8828 16.9922H36.9141C37.8848 16.9922 38.6719 17.7792 38.6719 18.75C38.6719 19.7208 37.8848 20.5078 36.9141 20.5078H29.8828C28.912 20.5078 28.125 19.7208 28.125 18.75C28.125 17.7792 28.912 16.9922 29.8828 16.9922ZM7.03125 26.3672C7.03125 22.645 9.08484 19.3952 12.1172 17.6856C11.14 16.5554 10.5469 15.0844 10.5469 13.4766C10.5469 9.92262 13.4382 7.03125 16.9922 7.03125C20.5461 7.03125 23.4375 9.92262 23.4375 13.4766C23.4375 15.0844 22.8444 16.5553 21.8672 17.6856C24.8995 19.3951 26.9531 22.645 26.9531 26.3672V27.5391C26.9531 28.5098 26.1661 29.2969 25.1953 29.2969H8.78906C7.81828 29.2969 7.03125 28.5098 7.03125 27.5391V26.3672Z" fill="#FFD624"/>
<path d="M28.5469 37.3882L40.9746 24.9604L45.9457 29.9315L33.518 42.3593L28.5469 37.3882Z" fill="#FFD624"/>
<path d="M21.7164 46.7535C21.2387 47.4516 21.3261 48.391 21.9241 48.9891C22.5223 49.5872 23.4615 49.6747 24.1597 49.1969L30.8278 44.6346L26.2787 40.0854L21.7164 46.7535Z" fill="#FFD624"/>
<path d="M57.1414 18.7437C57.8279 18.0573 57.8279 16.9443 57.1414 16.2578L54.6555 13.7719C53.969 13.0855 52.8561 13.0855 52.1696 13.7719L48.4407 17.5008L53.4125 22.4726L57.1414 18.7437Z" fill="#FFD624"/>
<path d="M43.4618 22.4756L45.9473 19.99L50.9184 24.9611L48.4328 27.4466L43.4618 22.4756Z" fill="#FFD624"/>
</svg>
