<svg width="60" height="60" viewBox="0 0 60 60" fill="none" xmlns="http://www.w3.org/2000/svg">
<path d="M52.8345 30C52.8345 28.8912 52.7541 27.7795 52.595 26.682L59.7314 21.7288L51.9615 8.27121L44.1026 11.9755C42.3503 10.5877 40.4254 9.47426 38.3564 8.65219L37.6355 0H22.0959L21.3749 8.65219C19.3061 9.47426 17.381 10.5877 15.6287 11.9755L7.76976 8.27121L0 21.7288L7.13637 26.682C6.97734 27.7795 6.89695 28.8912 6.89695 30C6.89695 31.1088 6.97734 32.2205 7.13637 33.318L0 38.2712L7.76976 51.7289L15.6286 48.0247C17.5464 49.5442 19.6668 50.7304 21.9554 51.5677V43.839C19.7261 42.5632 17.8331 40.7653 16.4384 38.589C14.7962 36.0262 13.9282 33.0564 13.9282 30C13.9282 23.0774 18.3482 16.9868 24.9268 14.8441L27.229 14.0944V25.6396L29.8657 27.7489L32.5024 25.6396V14.0944L34.8046 14.8441C41.3832 16.9868 45.8032 23.0774 45.8032 30C45.8032 33.0564 44.9352 36.0262 43.2929 38.5889C41.8982 40.7653 40.0052 42.5631 37.7759 43.8389V51.5675C40.0646 50.7302 42.185 49.5441 44.1027 48.0246L51.9615 51.7288L59.7313 38.2711L52.5949 33.3179C52.7541 32.2205 52.8345 31.1088 52.8345 30Z" fill="#FFD624"/>
<path d="M34.2603 41.6752L35.2544 41.1957C39.5269 39.135 42.2876 34.7405 42.2876 30C42.2876 25.4588 39.8473 21.3767 36.0181 19.2021V27.3293L29.8657 32.2512L23.7134 27.3293V19.2021C19.8842 21.3767 17.4438 25.4588 17.4438 30C17.4438 34.7405 20.2046 39.135 24.4771 41.1958L25.4712 41.6753V60H34.2603V41.6752Z" fill="#FFD624"/>
</svg>
