<svg width="63" height="60" viewBox="0 0 63 60" fill="none" xmlns="http://www.w3.org/2000/svg">
<path d="M42.4138 10.345H15.5172V13.4484H42.4138V10.345Z" fill="#FFD624"/>
<path d="M25.8618 21.7241H19.6549V23.7931H25.8618V21.7241Z" fill="#FFD624"/>
<path d="M44.8384 28.8102C44.6159 28.5919 44.4938 28.2972 44.4938 27.9826C44.4938 27.6702 44.6159 27.3763 44.8363 27.155L45.637 26.3543L38.7919 24.3008L40.1015 28.6673L40.8452 31.1459L41.5921 30.399C41.8548 30.1363 42.2004 30.0038 42.5469 30.0038C42.8924 30.0038 43.2379 30.1353 43.5017 30.399L45.7755 32.6739L47.2382 31.2101L44.8384 28.8102Z" fill="#FFD624"/>
<path d="M15.5182 15.5171V27.9309H37.7202C37.4005 26.8643 37.0798 25.7968 36.7602 24.7302C36.6402 24.332 36.5212 23.9336 36.4012 23.5365C36.2492 23.0285 36.0764 22.5071 36.487 22.0603C36.4973 22.0489 36.5078 22.0386 36.5181 22.0281C37.0374 21.5058 37.7481 21.8285 38.3502 22.0085C39.0185 22.2091 39.6858 22.4088 40.353 22.6095C41.0399 22.8154 41.7279 23.0223 42.4147 23.2282V15.5172H15.5182V15.5171ZM27.9309 24.8274C27.9309 25.3984 27.4674 25.8619 26.8964 25.8619H18.6205C18.0496 25.8619 17.5861 25.3984 17.5861 24.8274V20.6895C17.5861 20.1185 18.0496 19.6551 18.6205 19.6551H26.8964C27.4674 19.6551 27.9309 20.1185 27.9309 20.6895V24.8274Z" fill="#FFD624"/>
<path d="M56.8964 39.3103H5.17245H0V43.4472C0 45.7293 1.85685 47.5862 4.13897 47.5862H24.7778C24.5327 51.6889 22.8247 53.7931 19.6551 53.7931H17.5861C15.8751 53.7931 14.4827 55.1855 14.4827 56.8965C14.4827 58.6075 15.8751 60 17.5861 60H44.4827C46.1937 60 47.5861 58.6075 47.5861 56.8965C47.5861 55.1855 46.1937 53.7931 44.4827 53.7931H42.4136C39.244 53.7931 37.5371 51.6889 37.2909 47.5862H57.9299C60.212 47.5862 62.0689 45.7293 62.0689 43.4472V39.3103H56.8964ZM27.931 41.3793H34.1379C34.7089 41.3793 35.1723 41.8428 35.1723 42.4137C35.1723 42.9847 34.7089 43.4482 34.1379 43.4482H27.931C27.36 43.4482 26.8965 42.9847 26.8965 42.4137C26.8965 41.8428 27.36 41.3793 27.931 41.3793ZM37.3748 53.7931H24.6931C25.9676 52.3821 26.7176 50.281 26.8676 47.5862H35.2003C35.3514 50.281 36.1003 52.382 37.3748 53.7931Z" fill="#FFD624"/>
<path d="M6.20691 6.20679V37.2412H55.862V6.20679H6.20691ZM49.4317 31.9427L46.5062 34.8693C46.3118 35.0637 46.0489 35.1723 45.7748 35.1723C45.5007 35.1723 45.2369 35.0637 45.0435 34.8693L42.5463 32.371L41.0835 33.8348C40.825 34.0924 40.4505 34.1938 40.0987 34.1069C39.7459 34.0179 39.4656 33.75 39.3611 33.4003L38.341 29.9999H14.4838C13.9128 29.9999 13.4493 29.5364 13.4493 28.9655V14.4827V9.31023C13.4493 8.73925 13.9128 8.27579 14.4838 8.27579H43.4492C44.0202 8.27579 44.4836 8.73925 44.4836 9.31023V14.4827V23.8489L47.8912 24.871C48.2399 24.9764 48.5078 25.2557 48.5968 25.6085C48.6858 25.9613 48.5822 26.3358 48.3248 26.5934L46.9355 27.9827L49.4327 30.4798C49.8361 30.8844 49.8361 31.5392 49.4317 31.9427Z" fill="#FFD624"/>
<path d="M57.9299 0H4.13897C1.85685 0 0 1.85697 0 4.13897V37.2413H4.13788V5.17245C4.13788 4.60146 4.60134 4.13801 5.17232 4.13801H56.8964C57.4674 4.13801 57.9309 4.60146 57.9309 5.17245V37.2413H62.0689V4.13897C62.0689 1.85697 60.212 0 57.9299 0Z" fill="#FFD624"/>
</svg>
