<svg width="49" height="37" viewBox="0 0 49 37" fill="none" xmlns="http://www.w3.org/2000/svg">
<path d="M44.1367 0H4.25287C3.59819 0 2.98528 0.160953 2.43079 0.426247L24.1003 22.0957L28.9571 17.4281C28.9571 17.4281 28.9575 17.4276 28.9576 17.4274C28.9577 17.4272 28.9581 17.4271 28.9581 17.4271L45.9594 0.426625C45.4049 0.161142 44.7916 0 44.1367 0Z" fill="#FFD624"/>
<path d="M47.9644 2.43164L31.9652 18.43L47.9638 34.4286C48.2291 33.8741 48.3901 33.2612 48.3901 32.6065V4.25307C48.3901 3.59876 48.2295 2.98595 47.9644 2.43164Z" fill="#FFD624"/>
<path d="M0.426247 2.43066C0.160953 2.98516 0 3.59807 0 4.25275V32.6062C0 33.2605 0.160764 33.8735 0.425868 34.4278L16.425 18.4295L0.426247 2.43066Z" fill="#FFD624"/>
<path d="M29.9599 20.4343L25.1023 25.1025C24.8254 25.3794 24.4627 25.5179 24.1001 25.5179C23.7374 25.5179 23.3746 25.3794 23.0978 25.1025L18.4293 20.4341L2.42981 36.4325C2.9844 36.698 3.59769 36.8591 4.25256 36.8591H44.1364C44.7911 36.8591 45.404 36.6982 45.9585 36.4329L29.9599 20.4343Z" fill="#FFD624"/>
</svg>
