<svg width="12" height="13" viewBox="0 0 12 13" fill="none" xmlns="http://www.w3.org/2000/svg">
<path d="M10.3798 5.17113C10.3946 3.43375 8.91487 1.84103 7.08124 1.62079C7.04477 1.61647 7.00505 1.60988 6.96299 1.60292C6.87221 1.58788 6.77834 1.57242 6.68362 1.57242C6.30781 1.57242 6.20735 1.8364 6.18091 1.99385C6.15519 2.14693 6.17972 2.27548 6.25369 2.37609C6.37815 2.54532 6.59713 2.57536 6.77302 2.59943C6.82457 2.60655 6.87321 2.61317 6.91393 2.62232C8.56137 2.99043 9.11609 3.56919 9.3872 5.20263C9.39382 5.24254 9.3968 5.29172 9.39998 5.34388C9.41181 5.53913 9.43645 5.94537 9.87319 5.94537H9.87323C9.90958 5.94537 9.94866 5.94223 9.98934 5.93603C10.396 5.87423 10.3833 5.50289 10.3772 5.32448C10.3754 5.27423 10.3738 5.2267 10.378 5.19509C10.3792 5.18713 10.3798 5.17913 10.3798 5.17113Z" fill="#FFD624"/>
<path d="M6.57697 0.983078C6.62576 0.986599 6.67195 0.989967 6.71041 0.99586C9.41568 1.41189 10.6598 2.69363 11.0046 5.42006C11.0104 5.4664 11.0113 5.52292 11.0123 5.58278C11.0157 5.79579 11.0228 6.23892 11.4987 6.2481L11.5135 6.24826C11.6627 6.24826 11.7814 6.20325 11.8664 6.11439C12.0145 5.95943 12.0042 5.72924 11.9958 5.54424C11.9938 5.49885 11.9919 5.45611 11.9924 5.41868C12.0268 2.63025 9.61307 0.101721 6.82714 0.00769226C6.81558 0.00730956 6.80456 0.00792188 6.79342 0.00949094C6.78795 0.0102946 6.77781 0.0112896 6.76043 0.0112896C6.73265 0.0112896 6.69847 0.00887862 6.66223 0.00642935C6.61841 0.00344429 6.56874 0 6.51838 0C6.07471 0 5.99037 0.315344 5.97957 0.503326C5.9547 0.937766 6.37498 0.968344 6.57697 0.983078Z" fill="#FFD624"/>
<path d="M10.8741 8.94379C10.8165 8.89985 10.7571 8.85439 10.7014 8.80954C10.406 8.57184 10.0918 8.35275 9.78788 8.14085C9.72481 8.09691 9.66175 8.05294 9.59891 8.00885C9.20963 7.73542 8.85965 7.60254 8.52899 7.60254C8.08365 7.60254 7.69536 7.84862 7.37489 8.33384C7.23291 8.54896 7.06065 8.65355 6.84837 8.65355C6.72285 8.65355 6.58021 8.61773 6.42449 8.54704C5.16798 7.97724 4.27074 7.10362 3.75765 5.95043C3.50963 5.39307 3.59003 5.02874 4.02654 4.73222C4.27441 4.56399 4.73579 4.25079 4.70311 3.65102C4.6661 2.96993 3.16332 0.920613 2.53015 0.687855C2.26206 0.589272 1.9804 0.588353 1.69146 0.685559C0.963565 0.930257 0.441219 1.35999 0.180754 1.92822C-0.0709473 2.47728 -0.0595812 3.12198 0.213628 3.79262C1.00344 5.7316 2.11388 7.42214 3.51422 8.81719C4.88489 10.1828 6.56957 11.3014 8.52142 12.1419C8.69734 12.2176 8.88188 12.2589 9.01663 12.289C9.06255 12.2993 9.1022 12.3081 9.13109 12.3161C9.14698 12.3204 9.16336 12.3227 9.17977 12.3229L9.1952 12.3229C9.19524 12.3229 9.1952 12.3229 9.19527 12.3229C10.1133 12.3229 11.2156 11.4841 11.5541 10.5277C11.8507 9.69028 11.3092 9.27635 10.8741 8.94379Z" fill="#FFD624"/>
<path d="M6.98304 3.198C6.82586 3.20198 6.49877 3.21009 6.384 3.54323C6.33031 3.69891 6.33674 3.83408 6.40313 3.94499C6.50057 4.10771 6.68725 4.15758 6.85705 4.18494C7.47286 4.28375 7.78912 4.62428 7.85238 5.2565C7.88177 5.55129 8.08028 5.75715 8.33515 5.75715H8.33519C8.35402 5.75715 8.37327 5.75604 8.39244 5.7537C8.69899 5.71723 8.84759 5.49201 8.83416 5.08436C8.83905 4.65891 8.6164 4.17591 8.23772 3.79118C7.85774 3.40527 7.39968 3.18793 6.98304 3.198Z" fill="#FFD624"/>
</svg>
