<svg width="58" height="60" fill="none" xmlns="http://www.w3.org/2000/svg"><path d="M16.992 16.406a2.93 2.93 0 100-5.86 2.93 2.93 0 000 5.86zm0 3.516a6.454 6.454 0 00-6.419 5.86h12.838a6.454 6.454 0 00-6.419-5.86z" fill="#FFD624"/><path d="M8.79 38.906h14.036l1.375-2.01a5.34 5.34 0 01.625-.753l20.877-20.876V1.757c0-.97-.787-1.757-1.758-1.757H1.758C.787 0 0 .787 0 1.758v56.484C0 59.213.787 60 1.758 60h42.187c.971 0 1.758-.787 1.758-1.758V35.154L34.768 46.089c-.227.228-.48.438-.75.622L26.146 52.1a5.253 5.253 0 01-2.977.92 5.24 5.24 0 01-3.73-1.544 5.252 5.252 0 01-1.26-2.022H8.79a1.758 1.758 0 010-3.516h9.425c.149-.405.348-.799.601-1.169l1.605-2.346H8.79a1.758 1.758 0 010-3.516zM29.882 9.961h7.031a1.758 1.758 0 010 3.516h-7.031a1.758 1.758 0 010-3.516zm0 7.031h7.031a1.758 1.758 0 010 3.516h-7.031a1.758 1.758 0 010-3.516zM7.03 26.367c0-3.722 2.054-6.972 5.086-8.681a6.416 6.416 0 01-1.57-4.21 6.453 6.453 0 016.445-6.445 6.453 6.453 0 016.445 6.446 6.416 6.416 0 01-1.57 4.209c3.032 1.71 5.086 4.959 5.086 8.681v1.172c0 .97-.787 1.758-1.758 1.758H8.79c-.97 0-1.758-.787-1.758-1.758v-1.172z" fill="#FFD624"/><path d="M28.547 37.388L40.975 24.96l4.97 4.971L33.519 42.36l-4.971-4.97zm-6.831 9.366a1.758 1.758 0 002.444 2.443l6.668-4.562-4.55-4.55-4.562 6.669zm35.425-28.01c.687-.687.687-1.8 0-2.486l-2.485-2.486a1.758 1.758 0 00-2.486 0L48.44 17.5l4.973 4.972 3.728-3.73zm-13.679 3.732l2.485-2.486 4.971 4.971-2.485 2.486-4.971-4.971z" fill="#FFD624"/></svg>