<svg width="60" height="60" fill="none" xmlns="http://www.w3.org/2000/svg"><path d="M52.834 30c0-1.109-.08-2.22-.239-3.318l7.136-4.953-7.77-13.458-7.858 3.704a22.778 22.778 0 00-5.747-3.323L37.636 0h-15.54l-.721 8.652a22.781 22.781 0 00-5.746 3.324L7.769 8.27 0 21.73l7.136 4.953a23.167 23.167 0 000 6.636L0 38.271 7.77 51.73l7.859-3.704a22.72 22.72 0 006.326 3.543V43.84a15.978 15.978 0 01-5.517-5.25 15.887 15.887 0 01-2.51-8.59 15.9 15.9 0 0110.999-15.156l2.302-.75V25.64l2.637 2.109 2.636-2.11V14.095l2.303.75A15.9 15.9 0 0145.803 30a15.89 15.89 0 01-2.51 8.589 15.977 15.977 0 01-5.517 5.25v7.729a22.717 22.717 0 006.327-3.543l7.858 3.704 7.77-13.458-7.136-4.953c.16-1.097.24-2.21.24-3.318z" fill="#FFD624"/><path d="M34.26 41.675l.994-.48c4.273-2.06 7.034-6.455 7.034-11.195 0-4.541-2.44-8.623-6.27-10.798v8.127l-6.152 4.922-6.153-4.922v-8.127A12.392 12.392 0 0017.443 30c0 4.74 2.762 9.135 7.034 11.196l.994.48V60h8.79V41.675z" fill="#FFD624"/></svg>