<svg width="63" height="60" fill="none" xmlns="http://www.w3.org/2000/svg"><path d="M42.414 10.345H15.517v3.103h26.897v-3.103zM25.862 21.724h-6.207v2.07h6.207v-2.07zm18.976 7.086a1.166 1.166 0 01-.002-1.655l.801-.8-6.845-2.054 1.31 4.366.743 2.479.747-.747a1.348 1.348 0 011.91 0l2.273 2.275 1.463-1.464-2.4-2.4z" fill="#FFD624"/><path d="M15.518 15.517v12.414H37.72l-.96-3.2-.359-1.195c-.152-.508-.325-1.029.086-1.476l.031-.032c.52-.522 1.23-.2 1.832-.02.669.201 1.336.4 2.003.602l2.062.618v-7.71H15.518zm12.413 9.31c0 .571-.464 1.035-1.035 1.035H18.62c-.57 0-1.034-.464-1.034-1.035V20.69c0-.57.464-1.034 1.035-1.034h8.275c.571 0 1.035.463 1.035 1.034v4.138zM56.896 39.31H0v4.137a4.144 4.144 0 004.139 4.14h20.639c-.245 4.102-1.953 6.206-5.123 6.206h-2.069a3.107 3.107 0 00-3.103 3.104A3.107 3.107 0 0017.586 60h26.897a3.107 3.107 0 003.103-3.103 3.107 3.107 0 00-3.103-3.104h-2.07c-3.169 0-4.876-2.104-5.122-6.207H57.93a4.144 4.144 0 004.139-4.139V39.31h-5.173zm-28.965 2.07h6.207a1.035 1.035 0 010 2.068H27.93a1.035 1.035 0 010-2.069zm9.444 12.413H24.693c1.275-1.41 2.025-3.512 2.175-6.207H35.2c.151 2.695.9 4.796 2.175 6.207z" fill="#FFD624"/><path d="M6.207 6.207V37.24h49.655V6.207H6.207zm43.225 25.736l-2.926 2.926a1.034 1.034 0 01-1.462 0l-2.498-2.498-1.462 1.464a1.033 1.033 0 01-1.722-.434L38.34 30H14.484a1.035 1.035 0 01-1.035-1.035V9.31c0-.57.464-1.034 1.035-1.034h28.965c.571 0 1.035.463 1.035 1.034v14.54l3.407 1.022a1.035 1.035 0 01.434 1.722l-1.39 1.39 2.498 2.497c.403.404.403 1.06-.001 1.463z" fill="#FFD624"/><path d="M57.93 0H4.139A4.144 4.144 0 000 4.139v33.102h4.138V5.172c0-.57.463-1.034 1.034-1.034h51.724c.571 0 1.035.463 1.035 1.034v32.07h4.138V4.138A4.144 4.144 0 0057.929 0z" fill="#FFD624"/></svg>