<svg width="49" height="37" fill="none" xmlns="http://www.w3.org/2000/svg"><path d="M44.137 0H4.253C3.598 0 2.985.161 2.43.426l21.67 21.67 4.856-4.668h.001L45.96.426A4.203 4.203 0 0044.137 0zm3.827 2.432L31.965 18.43l15.999 15.999a4.204 4.204 0 00.426-1.823V4.253a4.19 4.19 0 00-.426-1.821zM.426 2.43A4.204 4.204 0 000 4.254v28.353c0 .654.16 1.267.426 1.822L16.425 18.43.426 2.43z" fill="#FFD624"/><path d="M29.96 20.434l-4.858 4.668a1.413 1.413 0 01-2.004 0l-4.669-4.668-16 15.998a4.204 4.204 0 001.824.427h39.883a4.19 4.19 0 001.822-.426L29.96 20.434z" fill="#FFD624"/></svg>