<svg width="12" height="13" fill="none" xmlns="http://www.w3.org/2000/svg"><path d="M10.38 5.171c.015-1.737-1.465-3.33-3.299-3.55l-.118-.018a1.715 1.715 0 00-.28-.03c-.375 0-.476.263-.502.42a.487.487 0 00.073.383c.124.17.343.2.519.223.052.008.1.014.14.023 1.648.368 2.203.947 2.474 2.58.007.04.01.09.013.142.012.195.036.601.473.601a.776.776 0 00.116-.009c.407-.062.394-.433.388-.612a.903.903 0 01.003-.153z" fill="#FFD624"/><path d="M6.577.983c.049.004.095.007.133.013 2.706.416 3.95 1.698 4.295 4.424.005.046.006.103.007.163.004.213.01.656.487.665h.014c.15 0 .268-.045.353-.134.149-.155.138-.385.13-.57-.002-.045-.004-.088-.004-.125C12.027 2.63 9.613.102 6.827.008l-.034.001a.233.233 0 01-.033.002 1.26 1.26 0 01-.098-.005A2.076 2.076 0 006.518 0c-.443 0-.528.315-.538.503-.025.435.395.465.597.48zm4.297 7.961a8.464 8.464 0 01-.173-.134 16.53 16.53 0 00-.913-.67 69.543 69.543 0 01-.19-.131c-.388-.274-.738-.406-1.069-.406-.445 0-.834.246-1.154.73-.142.216-.314.32-.527.32-.125 0-.268-.035-.424-.106-1.256-.57-2.153-1.443-2.666-2.597-.248-.557-.168-.921.269-1.218.247-.168.709-.481.676-1.081C4.666 2.97 3.163.921 2.53.688c-.268-.099-.55-.1-.839-.002C.964.93.441 1.36.181 1.928c-.252.55-.24 1.194.033 1.865.79 1.939 1.9 3.63 3.3 5.024 1.37 1.366 3.056 2.484 5.007 3.325.176.076.36.117.496.147l.114.027a.196.196 0 00.049.007h.015c.918 0 2.02-.839 2.36-1.795.296-.838-.246-1.252-.68-1.584zM6.983 3.198c-.157.004-.484.012-.599.345-.054.156-.047.291.02.402.097.163.283.213.453.24.616.099.932.44.995 1.072.03.294.228.5.483.5a.474.474 0 00.057-.003c.307-.037.456-.262.442-.67.005-.425-.218-.908-.596-1.293-.38-.386-.838-.603-1.255-.593z" fill="#FFD624"/></svg>