<svg width="12" height="12" fill="none" xmlns="http://www.w3.org/2000/svg"><path d="M6.002 0h-.003A6.005 6.005 0 000 6c0 1.313.423 2.529 1.142 3.517l-.747 2.229 2.306-.738A5.94 5.94 0 006 12a6.006 6.006 0 006-6c0-3.308-2.69-6-5.998-6zm3.49 8.473c-.144.409-.719.747-1.177.846-.313.067-.723.12-2.101-.451-1.764-.73-2.899-2.522-2.988-2.639-.084-.116-.712-.948-.712-1.81 0-.86.437-1.28.614-1.46.144-.147.383-.215.613-.215.074 0 .141.004.201.007.176.008.265.018.381.296.145.349.497 1.21.54 1.299.042.088.085.208.025.324-.056.12-.106.173-.194.276-.089.102-.173.18-.261.289-.082.095-.173.197-.071.373.102.173.454.748.973 1.21.67.597 1.213.787 1.407.868.145.06.318.046.423-.067.135-.144.3-.385.47-.62.12-.17.27-.191.43-.131.162.056 1.019.48 1.195.567.177.089.293.131.335.205.042.075.042.423-.102.833z" fill="#FFD624"/></svg>