<svg width="1150" height="542" viewBox="0 0 1150 542" fill="none" xmlns="http://www.w3.org/2000/svg">
<rect width="42.6451" height="644.461" rx="21.3226" transform="matrix(0.724303 0.689481 -0.87568 0.482892 565.105 0)" fill="#FFD624"/>
<rect width="43.1925" height="637.372" rx="21.5963" transform="matrix(-0.751278 -0.659986 0.85842 -0.512947 602.552 542)" fill="#FFD624"/>
<rect width="43.1925" height="921.369" rx="21.5963" transform="matrix(-0.751278 -0.659986 0.85842 -0.512947 355.45 528.131)" fill="#FFD624"/>
<rect width="42.6451" height="931.087" rx="21.3226" transform="matrix(0.724303 0.689481 -0.87568 0.482892 826.334 11.0916)" fill="#FFD624"/>
<rect width="6.72484" height="713.316" rx="3.36242" transform="matrix(0.724303 0.689481 -0.87568 0.482892 633.4 26.4106)" fill="#FFD624"/>
<rect width="6.81116" height="705.47" rx="3.40558" transform="matrix(-0.751278 -0.659986 0.85842 -0.512947 532.885 517.542)" fill="#FFD624"/>
<rect width="6.72484" height="997.327" rx="3.36242" transform="matrix(0.724303 0.689481 -0.87568 0.482892 1001.34 19.5996)" fill="#FFD624"/>
<rect width="25.3217" height="457.051" rx="12.6608" transform="matrix(0.724303 0.689481 -0.87568 0.482892 404.994 18.0461)" fill="#FFD624"/>
<rect width="25.6467" height="452.024" rx="12.8234" transform="matrix(-0.751278 -0.659986 0.85842 -0.512947 761.568 519.437)" fill="#FFD624"/>
<rect width="25.3217" height="839.525" rx="12.6608" transform="matrix(0.724303 0.689481 -0.87568 0.482892 741.155 6.82996)" fill="#FFD624"/>
<rect width="25.6467" height="830.291" rx="12.8234" transform="matrix(-0.751278 -0.659986 0.85842 -0.512947 426.268 540.157)" fill="#FFD624"/>
<rect width="25.5452" height="947.463" rx="12.7726" transform="matrix(-0.743072 -0.669212 0.863952 -0.503574 246.086 510.566)" fill="#FFD624"/>
<rect width="25.3217" height="1013.48" rx="12.6608" transform="matrix(0.724303 0.689481 -0.87568 0.482892 944.484 14.0588)" fill="#FFD624"/>
</svg>
