<svg width="167" height="57" viewBox="0 0 167 57" fill="none" xmlns="http://www.w3.org/2000/svg">
<path d="M89.2 17.3911C89.2 11.9711 85.2 8.45109 79.34 8.45109H71.24V26.3311H79.34C85.19 26.3311 89.2 22.8011 89.2 17.3911ZM75.36 22.9611V11.8511H79.14C82.7 11.8511 85 13.9611 85 17.3911C85 20.8211 82.7 22.9611 79.14 22.9611H75.36ZM101 8.15109C95.36 8.15109 91.23 12.0711 91.23 17.3911C91.23 22.7111 95.36 26.6311 101 26.6311C106.64 26.6311 110.79 22.7311 110.79 17.3911C110.79 12.0511 106.59 8.15109 101 8.15109ZM101 23.1511C100.251 23.1713 99.5051 23.0364 98.8103 22.7549C98.1155 22.4734 97.4864 22.0513 96.9625 21.5152C96.4385 20.979 96.0311 20.3404 95.7656 19.6393C95.5002 18.9382 95.3825 18.1898 95.42 17.4411C95.3881 16.6864 95.5092 15.9331 95.776 15.2265C96.0427 14.5199 96.4497 13.8745 96.9724 13.3293C97.4951 12.784 98.1227 12.3501 98.8174 12.0537C99.5122 11.7573 100.26 11.6045 101.015 11.6045C101.77 11.6045 102.518 11.7573 103.213 12.0537C103.907 12.3501 104.535 12.784 105.058 13.3293C105.58 13.8745 105.987 14.5199 106.254 15.2265C106.521 15.9331 106.642 16.6864 106.61 17.4411C106.638 18.1876 106.512 18.9318 106.24 19.6277C105.969 20.3236 105.557 20.9564 105.032 21.4869C104.506 22.0174 103.877 22.4344 103.183 22.7121C102.49 22.9897 101.747 23.1221 101 23.1011V23.1511ZM130.3 26.3811V8.45109H126.22V19.3111L117.32 8.45109H113.91V26.3311H118V15.4711L126.91 26.3311L130.3 26.3811ZM147.89 26.3811H152.23L146.44 13.4311L144.24 8.50109H140.16L132.42 25.8611L132.19 26.3811H136.43L138 22.5011H146.3L147.89 26.3811ZM139.34 19.3811L142.18 12.5511L143.72 16.2711L145 19.3511L139.34 19.3811ZM151.2 11.8611H156.92V26.3611H161V11.8311H166.71V8.45109H151.17L151.2 11.8611ZM79 33.8811H71.24V51.7611H75.36V46.8311H79C81.1644 46.96 83.2943 46.2428 84.94 44.8311C85.5418 44.2568 86.0152 43.5615 86.3289 42.7911C86.6426 42.0206 86.7895 41.1924 86.76 40.3611C86.72 36.3611 83.74 33.8811 79 33.8811ZM78.77 43.4611H75.36V37.2611H78.73C81.26 37.2611 82.54 38.4011 82.54 40.3711C82.54 42.3411 81.26 43.4611 78.73 43.4611H78.77ZM98.62 33.5811C92.98 33.5811 88.84 37.5011 88.84 42.8211C88.8408 43.2423 88.8675 43.6631 88.92 44.0811C89.53 48.7511 93.44 52.0811 98.62 52.0811C104.24 52.0811 108.39 48.1811 108.39 42.8411C108.402 41.4573 108.098 40.0891 107.5 38.8411C106.684 37.193 105.407 35.8179 103.823 34.8839C102.239 33.9498 100.417 33.4971 98.58 33.5811H98.62ZM98.62 48.5811C97.8921 48.6094 97.1659 48.4903 96.4851 48.2312C95.8043 47.972 95.1829 47.578 94.6581 47.0727C94.1332 46.5675 93.7159 45.9615 93.4309 45.2911C93.146 44.6206 92.9994 43.8996 93 43.1711C92.9901 43.0546 92.9901 42.9375 93 42.8211C92.9639 42.0706 93.0832 41.3207 93.3503 40.6184C93.6174 39.916 94.0265 39.2764 94.5522 38.7395C95.0778 38.2026 95.7087 37.7799 96.4052 37.498C97.1017 37.2161 97.8489 37.081 98.6 37.1011C99.6425 37.0735 100.67 37.3501 101.558 37.8971C102.446 38.444 103.156 39.2377 103.6 40.1811C103.988 41.0063 104.183 41.9092 104.17 42.8211C104.206 43.5703 104.087 44.3189 103.82 45.02C103.554 45.7211 103.145 46.3597 102.621 46.8956C102.096 47.4316 101.466 47.8535 100.771 48.135C100.076 48.4164 99.3298 48.5512 98.58 48.5311L98.62 48.5811ZM111.52 51.8111H115.66V33.8811H111.52V51.8111ZM132.2 44.8111L123.32 33.9511H119.9V51.7611H123.98V40.9011L132.89 51.7611H136.28V33.8811H132.2V44.8111ZM138.5 37.3311H144.23V51.7611H148.36V37.2611H154.09V33.8811H138.46L138.5 37.3311Z" fill="white"/>
<path d="M47.26 38.1811C47.03 38.6611 46.79 39.1811 46.51 39.6211C44.6613 42.8886 42.0458 45.6575 38.8887 47.689C35.7317 49.7206 32.128 50.9539 28.3882 51.2826C24.6484 51.6113 20.8848 51.0256 17.4218 49.5759C13.9588 48.1262 10.9003 45.856 8.51 42.9611L11.36 41.0611L6.36 39.9011L4.36 39.4511L2.58 38.9611V39.3911L2.22 42.6611L1.67 47.5211L4.35 45.7411C7.37231 49.5331 11.3211 52.4821 15.8152 54.3034C20.3093 56.1246 25.197 56.7567 30.0066 56.1385C34.8161 55.5203 39.3851 53.6729 43.2726 50.7743C47.1601 47.8758 50.2348 44.0242 52.2 39.5911C52.4 39.1211 52.59 38.5911 52.77 38.1511L47.26 38.1811ZM6.1 16.9611C7.92492 13.6642 10.5274 10.8628 13.6813 8.80042C16.8352 6.73808 20.445 5.47717 24.197 5.1273C27.9491 4.77742 31.7298 5.34916 35.2106 6.79283C38.6914 8.2365 41.767 10.5084 44.17 13.4111L43 14.2311L41.36 15.3311L46.36 16.4711L50.14 17.3511L50.3 15.9611L50.55 13.7111L51.08 8.85111L48.42 10.6411C45.3896 6.83285 41.4253 3.87367 36.9125 2.0514C32.3997 0.229124 27.4922 -0.394214 22.6671 0.242011C17.8421 0.878237 13.2638 2.75237 9.37762 5.68212C5.49144 8.61187 2.42963 12.4975 0.49 16.9611C0.422992 17.107 0.366189 17.2574 0.32 17.4111C0.2 17.6611 0.1 17.9411 0 18.2111H5.46C5.66 17.7511 5.87 17.3311 6.1 16.9611ZM28.31 33.4911C29.3823 33.4991 30.4521 33.3885 31.5 33.1611C35.97 32.2211 38.62 29.1611 38.62 24.7711C38.62 20.3811 35.86 17.1911 31.21 16.3211C30.2556 16.1276 29.2838 16.0338 28.31 16.0411H18.62V29.3811H16.49V33.4811H18.62V35.8711H16.49V38.0511H18.62V41.9611H23.15V38.0511H25.24V35.8711H23.15V33.4911H28.31ZM23.15 20.1411H28.21C28.9013 20.1363 29.5913 20.1999 30.27 20.3311C33.38 20.9411 34.09 23.0111 34.09 24.7711C34.09 26.8711 33.09 29.3811 28.21 29.3811H23.15V20.1411Z" fill="#FFC200"/>
</svg>
